<?xml version="1.0" standalone="no"?><svg xmlns="http://www.w3.org/2000/svg" viewBox="0 0 1440 320"><path fill="#0099ff" fill-opacity="1" d="M0,32L14.1,42.7C28.2,53,56,75,85,80C112.9,85,141,75,169,58.7C197.6,43,226,21,254,16C282.4,11,311,21,339,48C367.1,75,395,117,424,154.7C451.8,192,480,224,508,218.7C536.5,213,565,171,593,133.3C621.2,96,649,64,678,64C705.9,64,734,96,762,122.7C790.6,149,819,171,847,192C875.3,213,904,235,932,213.3C960,192,988,128,1016,133.3C1044.7,139,1073,213,1101,245.3C1129.4,277,1158,267,1186,245.3C1214.1,224,1242,192,1271,176C1298.8,160,1327,160,1355,138.7C1383.5,117,1412,75,1426,53.3L1440,32L1440,320L1425.9,320C1411.8,320,1384,320,1355,320C1327.1,320,1299,320,1271,320C1242.4,320,1214,320,1186,320C1157.6,320,1129,320,1101,320C1072.9,320,1045,320,1016,320C988.2,320,960,320,932,320C903.5,320,875,320,847,320C818.8,320,791,320,762,320C734.1,320,706,320,678,320C649.4,320,621,320,593,320C564.7,320,536,320,508,320C480,320,452,320,424,320C395.3,320,367,320,339,320C310.6,320,282,320,254,320C225.9,320,198,320,169,320C141.2,320,113,320,85,320C56.5,320,28,320,14,320L0,320Z"></path></svg>