<?xml version="1.0" standalone="no"?><svg xmlns="http://www.w3.org/2000/svg" viewBox="0 0 1440 320"><path fill="#0099ff" fill-opacity="1" d="M0,96L26.7,96C53.3,96,107,96,160,90.7C213.3,85,267,75,320,58.7C373.3,43,427,21,480,26.7C533.3,32,587,64,640,80C693.3,96,747,96,800,80C853.3,64,907,32,960,58.7C1013.3,85,1067,171,1120,176C1173.3,181,1227,107,1280,64C1333.3,21,1387,11,1413,5.3L1440,0L1440,320L1413.3,320C1386.7,320,1333,320,1280,320C1226.7,320,1173,320,1120,320C1066.7,320,1013,320,960,320C906.7,320,853,320,800,320C746.7,320,693,320,640,320C586.7,320,533,320,480,320C426.7,320,373,320,320,320C266.7,320,213,320,160,320C106.7,320,53,320,27,320L0,320Z"></path></svg>